 <svg xmlns="http://www.w3.org/2000/svg" xmlns:xlink="http://www.w3.org/1999/xlink">
    <g class="logo__lockup" fill="#fff">
      <path class="logo__text-creative" d="M31.24 85.72a2.88 2.88 0 0 1 0-5.77 2.9 2.9 0 0 1 2.17.88l-.41.47a2.42 2.42 0 0 0-1.75-.76 2.31 2.31 0 0 0 0 4.6 2.42 2.42 0 0 0 1.8-.8l.41.41a2.9 2.9 0 0 1-2.22.97zm7.59-.1l-1.62-2.17h-1.59v2.17H35V80h2.4c1.23 0 2 .66 2 1.66a1.63 1.63 0 0 1-1.51 1.63l1.71 2.28zm-1.49-5h-1.72v2.26h1.71c.84 0 1.43-.43 1.43-1.16s-.52-1.09-1.42-1.09zm7.88 0h-3.4v1.9h3v.57h-3v2h3.44v.57h-4.07V80h4zm7 5h-.68l-.65-1.47h-3l-.66 1.47h-.64L49.13 80h.59zm-2.84-4.88l-1.27 2.84h2.54zm5.69 4.88h-.64v-5H52.6V80H57v.58h-1.89zm4-5.57v5.57h-.63V80zm6.17 0H66l-2.4 5.61H63L60.65 80h.7l2 4.8zm6.19.57h-3.4v1.9h3v.57h-3v2h3.44v.57h-3.98V80h4z"></path></g>
        <path class="logo__text" fill="#fff" d="M15 63.76h2l3.21 5 3.21-5h2v10.55h-1.91v-7.56l-3.33 5h-.06l-3.3-4.94v7.53H15zm13.66 6.07v-6.07h1.85v6c0 2 1 3 2.67 3s2.65-1 2.65-2.94v-6.06h1.85v6c0 3.15-1.78 4.73-4.53 4.73s-4.49-1.6-4.49-4.66zM41 63.76h4.7a4.25 4.25 0 0 1 3 1.05 3.19 3.19 0 0 1 .87 2.27A3.16 3.16 0 0 1 47 70.27l2.85 4h-2.1l-2.59-3.68h-2.32v3.68H41zM45.55 69c1.33 0 2.17-.69 2.17-1.76 0-1.13-.81-1.75-2.19-1.75h-2.7V69zm7.38-5.23h4.7a4.25 4.25 0 0 1 3 1.05 3.19 3.19 0 0 1 .87 2.27 3.16 3.16 0 0 1-2.5 3.23l2.85 4H59.7l-2.59-3.68h-2.32v3.68h-1.86zM57.5 69c1.33 0 2.17-.69 2.17-1.76 0-1.13-.81-1.75-2.18-1.75h-2.7V69zm10.82-5.3H70l4.64 10.62h-2l-1.07-2.55h-5l-1.09 2.55h-1.9zM71 70.12l-1.86-4.22-1.81 4.22zm8 0l-4.19-6.39H77l3 4.67 3-4.67h2l-4.19 6.34v4.2h-1.87z"></path>
        <path class="logo__icon" fill="#fff" d="M32.92 22H34v30.37h-1.08zm-4.78 30.37h1.06V22h-1.06zm2.39 0h1.06V22h-1.07zm38 0h1.07V22h-1.07zM70.92 22v30.37H72V22zm-4.78 30.37h1.06V22h-1.06zM50.24 32l14.58-10v30.37h-1.06v-20l-13.52 9.24-13.87-9.22v20H35.3V22zm13.52-5.39L50.24 36l-13.87-9.37v1.62l13.87 9.37 13.52-9.36zm0 4.48v-1.55l-13.52 9.27-13.87-9.29v1.59l13.87 9.3zm-13.52 2.1l-13.87-9.46v1.63l13.87 9.47 13.52-9.47v-1.62z"></path>
   
</svg>